<svg height="512pt" viewBox="0 0 512 512" width="512pt" xmlns="http://www.w3.org/2000/svg"><path d="m495.984375 0h-57.425781c-8.84375 0-16.011719 7.171875-16.011719 16.015625s7.167969 16.011719 16.011719 16.011719h41.414062v41.414062c0 8.84375 7.167969 16.011719 16.011719 16.011719s16.015625-7.167969 16.015625-16.011719v-57.425781c0-8.84375-7.171875-16.015625-16.015625-16.015625zm0 0"/><path d="m16.015625 89.453125c8.84375 0 16.011719-7.167969 16.011719-16.011719v-41.414062h41.414062c8.84375 0 16.011719-7.167969 16.011719-16.011719s-7.167969-16.015625-16.011719-16.015625h-57.425781c-8.84375 0-16.015625 7.171875-16.015625 16.015625v57.425781c0 8.84375 7.171875 16.011719 16.015625 16.011719zm0 0"/><path d="m73.441406 479.972656h-41.414062v-41.414062c0-8.84375-7.167969-16.011719-16.011719-16.011719s-16.015625 7.167969-16.015625 16.011719v57.425781c0 8.84375 7.171875 16.015625 16.015625 16.015625h57.425781c8.84375 0 16.011719-7.171875 16.011719-16.015625s-7.167969-16.011719-16.011719-16.011719zm0 0"/><path d="m495.984375 422.546875c-8.84375 0-16.011719 7.167969-16.011719 16.011719v41.414062h-41.414062c-8.84375 0-16.011719 7.167969-16.011719 16.011719s7.167969 16.015625 16.011719 16.015625h57.425781c8.84375 0 16.015625-7.171875 16.015625-16.015625v-57.425781c0-8.84375-7.171875-16.011719-16.015625-16.011719zm0 0"/><path d="m408.019531 257.386719c-54.488281 39.675781-132.113281 30.621093-175.753906-23.757813-36.449219-45.421875-37.609375-109.460937-3.679687-155.910156 5.816406-7.960938-1.367188-18.832031-10.992188-16.695312-120.261719 26.699218-177.472656 174.1875-97.285156 275.71875 3.105468-2.167969 5.359375-3.296876 7.503906-4.429688-21.453125-40.753906 8.277344-89.691406 54.140625-89.691406 45.867187 0 75.601563 48.933594 54.148437 89.691406 21.519532 11.421875 31.824219 30.589844 31.824219 50.882812v19.121094c76.808594-5.203125 140.027344-60.800781 156.777344-133.902344 2.207031-9.621093-8.703125-16.839843-16.683594-11.027343zm0 0"/><path d="m222.851562 361.542969-18.4375-9.757813c-9.886718-5.238281-11.46875-18.746094-3.128906-26.132812 6.257813-5.542969 9.84375-13.507813 9.84375-21.832032 0-16.089843-13.089844-29.167968-29.175781-29.167968-26.703125 0-39.390625 33.226562-19.324219 51 8.347656 7.394531 6.738282 20.914062-3.140625 26.132812-17.832031 9.441406-15.742187 8.339844-18.425781 9.757813-8.128906 4.304687-13.046875 12.648437-13.046875 21.652343v55.972657c0 8.84375 7.171875 16.015625 16.015625 16.015625h75.851562c8.84375 0 16.015626-7.171875 16.015626-16.015625v-55.972657c0-9.097656-4.996094-17.390624-13.046876-21.652343zm0 0"/></svg>